Coordinates
version=1
nRows=9
nColumns=63
inDegrees=yes

Units are S.I. units (second, meters, Newtons, ...)
If the header above contains a line with 'inDegrees', this indicates whether rotational values are in degrees (yes) or radians (no).

endheader
time	pelvis_tilt	pelvis_list	pelvis_rotation	pelvis_tx	pelvis_ty	pelvis_tz	hip_flexion_r	hip_adduction_r	hip_rotation_r	knee_angle_r	knee_angle_r_beta	ankle_angle_r	subtalar_angle_r	mtp_angle_r	hip_flexion_l	hip_adduction_l	hip_rotation_l	knee_angle_l	knee_angle_l_beta	ankle_angle_l	subtalar_angle_l	mtp_angle_l	L5_S1_Flex_Ext	L5_S1_Lat_Bending	L5_S1_axial_rotation	L4_L5_Flex_Ext	L4_L5_Lat_Bending	L4_L5_axial_rotation	L3_L4_Flex_Ext	L3_L4_Lat_Bending	L3_L4_axial_rotation	L2_L3_Flex_Ext	L2_L3_Lat_Bending	L2_L3_axial_rotation	L1_L2_Flex_Ext	L1_L2_Lat_Bending	L1_L2_axial_rotation	L1_T12_Flex_Ext	L1_T12_Lat_Bending	L1_T12_axial_rotation	Abs_r3	Abs_r2	Abs_r1	Abs_t1	Abs_t2	neck_flexion	neck_bending	neck_rotation	arm_flex_r	arm_add_r	arm_rot_r	elbow_flex_r	pro_sup_r	wrist_flex_r	wrist_dev_r	arm_flex_l	arm_add_l	arm_rot_l	elbow_flex_l	pro_sup_l	wrist_flex_l	wrist_dev_l
      0.00800000	    -41.28744088	     -5.18885310	     -1.17058183	     -0.38170726	      1.11457286	      0.01131175	    100.52990306	     -6.18892927	     -4.76985692	    102.12455998	      1.78240982	      1.04142575	     -7.38945222	      0.00000000	     88.84186835	     -5.03772620	      7.00462690	     53.29527127	      0.93017796	      8.85069867	     -3.74372699	      0.00000000	     -0.08375831	      0.92825758	     -0.16228511	     -0.15554755	      1.23458259	     -0.17242793	     -0.13760653	      2.25696549	     -0.17242793	     -0.09572737	      2.25696549	     -0.14199947	     -0.07777797	      1.89290286	     -0.13185665	     -0.04785950	      1.43787100	     -0.12171383	     -0.59827722	     10.50063543	     -0.90258109	      0.00000000	      0.00000000	      0.00000000	      0.00000000	      0.00000001	     63.12162546	     -7.81995287	     21.95332080	     34.33618179	     62.57770040	      0.00000000	      3.84243829	     62.25546245	     -4.69135749	     13.14929282	     29.40858289	     63.24471752	      0.00000000	      3.84243829
      0.01700000	    -41.28262376	     -5.89110527	     -1.60040255	     -0.38086264	      1.11424919	      0.01209477	    102.57752833	     -6.10853531	     -5.22986186	    104.18047914	      1.81829238	      1.90989100	     -7.42078033	      0.00000000	     86.72480844	     -5.81847242	      7.66098693	     50.97962569	      0.88976232	      8.36111857	     -3.39981390	      0.00000000	     -0.08213988	      1.02649424	     -0.08039248	     -0.15254196	      1.36523733	     -0.08541701	     -0.13494760	      2.49581809	     -0.08541701	     -0.09387766	      2.49581809	     -0.07034342	     -0.07627509	      2.09322705	     -0.06531889	     -0.04693473	      1.59003957	     -0.06029436	     -0.58671692	     11.61190810	     -0.44711888	      0.00000000	      0.00000000	      0.00000000	      0.00000000	      0.00000001	     63.32537052	     -8.01791601	     22.02425019	     34.27956894	     62.49934493	      0.00000000	      3.85674178	     62.24255807	     -4.37198398	     13.14827641	     29.09397181	     63.17905385	      0.00000000	      3.85674178
      0.02500000	    -41.21690566	     -6.31826282	     -1.44296170	     -0.38084272	      1.11425884	      0.01146253	    103.01006065	     -6.48193522	     -5.52751194	    104.71720627	      1.82766003	      2.89421746	     -6.88023528	      0.00000000	     86.13990712	     -5.74037210	      8.23676596	     50.38622074	      0.87940545	      8.26258750	     -3.51465137	      0.00000000	     -0.08463605	      1.09186382	     -0.10693020	     -0.15717760	      1.45217888	     -0.11361334	     -0.13904856	      2.65475769	     -0.11361334	     -0.09673054	      2.65475769	     -0.09356393	     -0.07859303	      2.22652870	     -0.08688079	     -0.04836104	      1.69129706	     -0.08019765	     -0.60454682	     12.35138191	     -0.59471370	      0.00000000	      0.00000000	      0.00000000	      0.00000000	      0.00000001	     63.50649220	     -8.24452927	     22.63201855	     34.21970404	     62.43448416	      0.00000000	      3.88833116	     62.18583554	     -4.20099522	     12.92492747	     28.78918434	     63.10028034	      0.00000000	      3.88833116
      0.03300000	    -41.17217624	     -6.47524675	     -1.60155347	     -0.38086560	      1.11414995	      0.01152583	    103.72952606	     -6.49011023	     -5.61214604	    105.34087571	      1.83854512	      3.07635594	     -6.87558542	      0.00000000	     85.58712634	     -6.04951359	      8.30356645	     50.00274815	      0.87271259	      8.03626860	     -3.52763208	      0.00000000	     -0.08357647	      1.12291730	     -0.07867008	     -0.15520986	      1.49348000	     -0.08358697	     -0.13730778	      2.73026112	     -0.08358697	     -0.09551954	      2.73026112	     -0.06883632	     -0.07760911	      2.28985295	     -0.06391944	     -0.04775559	      1.73939889	     -0.05900256	     -0.59697834	     12.70266504	     -0.43753941	      0.00000000	      0.00000000	      0.00000000	      0.00000000	      0.00000001	     63.53656638	     -8.31143231	     22.66141328	     34.18693747	     62.42798857	      0.00000000	      3.89074851	     62.00908454	     -4.19702948	     12.91956243	     28.80361028	     63.09434984	      0.00000000	      3.89074851
      0.04200000	    -41.18369395	     -6.77029250	     -1.78557214	     -0.38110511	      1.11456088	      0.01142374	    104.43707280	     -6.53312419	     -5.86013739	    105.76802504	      1.84600028	      3.52046001	     -6.63422965	      0.00000000	     84.80471509	     -6.41083803	      8.41819708	     48.97504604	      0.85477580	      7.62777564	     -3.93686888	      0.00000000	     -0.08561845	      1.17628865	     -0.04368965	     -0.15900202	      1.56446391	     -0.04642025	     -0.14066254	      2.86002823	     -0.04642025	     -0.09785332	      2.86002823	     -0.03822844	     -0.07950529	      2.39868782	     -0.03549784	     -0.04892238	      1.82207112	     -0.03276724	     -0.61156400	     13.30641248	     -0.24298873	      0.00000000	      0.00000000	      0.00000000	      0.00000000	      0.00000001	     63.67349473	     -8.42632822	     22.87276368	     34.06625469	     62.41310324	      0.00000000	      3.90097891	     61.74078133	     -4.17702649	     12.84073633	     29.07445203	     63.05626254	      0.00000000	      3.90097891
      0.05000000	    -41.16869994	     -7.16947222	     -1.83851626	     -0.38126912	      1.11468657	      0.01083236	    105.14579950	     -6.81586463	     -6.06558741	    106.34216584	      1.85602093	      4.72081720	     -5.23857570	      0.00000000	     84.14133640	     -6.47949601	      8.94247917	     48.31622692	      0.84327724	      6.42341147	     -5.75663941	      0.00000000	     -0.08540604	      1.24869636	     -0.05115133	     -0.15860756	      1.66076616	     -0.05434829	     -0.14031358	      3.03608033	     -0.05434829	     -0.09761056	      3.03608033	     -0.04475742	     -0.07930805	      2.54634161	     -0.04156046	     -0.04880101	      1.93423066	     -0.03836350	     -0.61004681	     14.12550295	     -0.28448837	      0.00000000	      0.00000000	      0.00000000	      0.00000000	      0.00000001	     64.06860250	     -8.67823688	     24.30826393	     33.78371206	     62.34234598	      0.00000000	      3.96088894	     61.30599169	     -4.14280219	     12.01299829	     29.52100735	     62.79518720	      0.00000000	      3.96088894
      0.05800000	    -41.18250046	     -7.37196863	     -1.99276018	     -0.38157765	      1.11482373	      0.01075664	    106.04940027	     -6.91614175	     -6.23564184	    106.88159236	      1.86543570	      5.00983228	     -5.24613015	      0.00000000	     83.40270930	     -6.84367425	      8.87070689	     47.52130263	      0.82940320	      6.34810246	     -5.82197962	      0.00000000	     -0.08450045	      1.29069096	     -0.02791925	     -0.15692578	      1.71661897	     -0.02966421	     -0.13882579	      3.13818599	     -0.02966421	     -0.09657556	      3.13818599	     -0.02442935	     -0.07846712	      2.63197700	     -0.02268439	     -0.04828356	      1.99928029	     -0.02093944	     -0.60357825	     14.60055424	     -0.15527852	      0.00000000	      0.00000000	      0.00000000	      0.00000000	      0.00000001	     64.17485726	     -8.72432564	     24.40025901	     33.71721248	     62.32170693	      0.00000000	      3.96815680	     61.11088627	     -4.18301530	     11.95109356	     29.66732370	     62.76826100	      0.00000000	      3.96815680
      0.06700000	    -41.19609603	     -7.55257414	     -2.13361294	     -0.38186321	      1.11499963	      0.01070007	    106.94872374	     -7.05564693	     -6.41191515	    107.37746377	      1.87409029	      5.39725027	     -5.17893052	      0.00000000	     82.64844684	     -7.17962667	      8.80702044	     46.74109328	      0.81578597	      6.25573666	     -5.94072003	      0.00000000	     -0.08481687	      1.33014731	     -0.01719375	     -0.15751341	      1.76909592	     -0.01826836	     -0.13934564	      3.23412017	     -0.01826836	     -0.09693720	      3.23412017	     -0.01504453	     -0.07876095	      2.71243640	     -0.01396992	     -0.04846436	      2.06039818	     -0.01289532	     -0.60583844	     15.04689241	     -0.09562650	      0.00000000	      0.00000000	      0.00000000	      0.00000000	      0.00000001	     64.31208939	     -8.70408340	     24.61955302	     33.61173924	     62.31277807	      0.00000000	      3.97720181	     60.86800138	     -4.30060759	     11.83427903	     29.95156979	     62.72493964	      0.00000000	      3.97720181
      0.07500000	    -41.22622439	     -7.69637626	     -2.26378043	     -0.38217476	      1.11515870	      0.01070645	    107.87091931	     -7.18457814	     -6.55767734	    107.80629577	      1.88157482	      5.79061061	     -5.09908034	      0.00000000	     81.94416557	     -7.48672983	      8.72552711	     46.03875047	      0.80352778	      6.15407118	     -5.99072433	      0.00000000	     -0.08459648	      1.36330801	     -0.01137646	     -0.15710412	      1.81319966	     -0.01208748	     -0.13898356	      3.31474710	     -0.01208748	     -0.09668532	      3.31474710	     -0.00995440	     -0.07855629	      2.78005770	     -0.00924337	     -0.04833843	      2.11176411	     -0.00853234	     -0.60426420	     15.42201290	     -0.06327244	      0.00000000	      0.00000000	      0.00000000	      0.00000000	      0.00000001	     64.44096550	     -8.65754513	     24.87692261	     33.53391338	     62.31719843	      0.00000000	      3.98469047	     60.66885382	     -4.43315435	     11.70424972	     30.20146092	     62.68253967	      0.00000000	      3.98469047
